<svg width="452" height="244" viewBox="0 0 452 244" fill="none" xmlns="http://www.w3.org/2000/svg">
<path d="M209.396 12.9825C209.396 12.9825 214.284 13.988 224.062 15.9989C233.847 18.0142 243.898 20.2441 254.214 22.6886C264.527 25.1365 274.668 27.7198 284.636 30.4386C294.602 33.1608 306.055 36.6996 318.995 41.0551C331.932 45.4139 343.183 49.5438 352.748 53.4447C362.305 57.3468 370.691 61.0011 377.904 64.4078C385.113 67.8122 391.93 71.6789 398.355 76.0079C404.783 80.3334 409.793 84.2755 413.387 87.8343C416.981 91.393 419.542 94.7966 421.069 98.0451C422.597 101.299 422.628 105.464 421.163 110.541C419.695 115.62 416.866 120.742 412.676 125.906C408.489 131.066 402.708 136.183 395.333 141.257C387.957 146.331 378.437 151.168 366.772 155.768C355.103 160.366 337.574 164.94 314.184 169.49C290.796 174.046 268.426 177.273 247.075 179.171C225.724 181.069 205.192 181.717 185.477 181.113C165.766 180.512 146.826 178.397 128.657 174.77C110.485 171.146 95.3299 167.34 83.1919 163.351C71.058 159.365 60.9848 155.33 52.9725 151.247C44.9674 147.163 38.3362 143.025 33.079 138.835C27.8289 134.644 23.8925 130.924 21.2697 127.675C18.6509 124.428 16.8454 121.054 15.8534 117.552C14.8542 114.052 15.9606 109.301 19.1728 103.299C22.385 97.2977 27.9826 91.4382 35.9656 85.7206C43.9487 80.0031 54.3399 74.3674 67.1391 68.8136C79.9343 63.2576 96.0233 57.9761 115.406 52.9691C134.785 47.9598 153.393 44.1055 171.229 41.406C189.066 38.7066 206.568 36.8932 223.736 35.9658C240.898 35.0452 256.854 34.3359 271.605 33.838C286.356 33.3345 300.46 33.6299 313.919 34.7243C327.385 35.8175 338.381 36.8723 346.907 37.8888C355.429 38.903 362.135 39.8673 367.023 40.7818C371.907 41.6941 375.073 42.3539 376.519 42.7613C377.969 43.1709 378.794 43.4285 378.994 43.5341C379.191 43.6431 379.359 43.7755 379.5 43.9313C379.641 44.0871 379.744 44.2607 379.808 44.4522C379.872 44.6381 379.895 44.8322 379.876 45.0347C379.862 45.2393 379.805 45.4364 379.708 45.626C379.614 45.8178 379.483 45.9969 379.315 46.1634C379.151 46.3264 378.959 46.4666 378.74 46.5838C378.521 46.701 378.286 46.7889 378.037 46.8477C377.791 46.9086 377.542 46.9368 377.291 46.9323C377.039 46.9278 376.8 46.8909 376.572 46.8218C376.34 46.7504 376.134 46.6517 375.953 46.5256C375.773 46.3995 375.624 46.2523 375.507 46.0838C375.391 45.9154 375.314 45.733 375.279 45.5367C375.243 45.3405 375.245 45.1421 375.286 44.9418C375.331 44.7436 375.414 44.5508 375.534 44.3633C375.659 44.178 375.811 44.0111 375.993 43.8626C376.181 43.7129 376.392 43.5884 376.625 43.4892C376.853 43.3877 377.094 43.3189 377.347 43.2827C377.596 43.2443 377.846 43.2376 378.097 43.2625C378.345 43.2908 378.576 43.3491 378.792 43.4376C379.005 43.5295 379.191 43.6459 379.352 43.7868C379.513 43.9278 379.639 44.0888 379.732 44.2699C379.821 44.4487 379.872 44.6381 379.886 44.838C379.893 45.039 379.863 45.2376 379.796 45.4337C379.721 45.6309 379.612 45.8167 379.467 45.9908C379.327 46.1672 379.154 46.323 378.949 46.4582C378.743 46.5933 378.521 46.701 378.282 46.7811C378.038 46.8589 377.791 46.9058 377.538 46.9216C377.283 46.9408 377.037 46.9267 376.802 46.879C376.562 46.8292 376.442 46.8043 376.442 46.8043C376.442 46.8043 375.879 46.5494 374.754 46.0397C373.628 45.53 370.676 44.8276 365.898 43.9325C361.119 43.0373 354.495 42.0841 346.025 41.0728C337.559 40.0638 326.691 39.0151 313.422 37.927C300.152 36.8388 286.158 36.5452 271.441 37.0462C256.725 37.5382 240.868 38.2397 223.867 39.151C206.865 40.0566 189.534 41.843 171.874 44.5104C154.21 47.1755 135.811 50.9692 116.677 55.8915C97.5442 60.8138 81.7199 65.9749 69.2045 71.3748C56.6923 76.7712 46.6219 82.1385 38.9932 87.4766C31.3646 92.8147 25.9992 98.1908 22.8973 103.605C19.7993 109.021 18.682 113.265 19.5452 116.338C20.4044 119.408 22.0631 122.483 24.5211 125.563C26.9792 128.642 30.7373 132.214 35.7955 136.279C40.8537 140.343 47.2911 144.378 55.1077 148.384C62.9275 152.386 72.8198 156.357 84.7846 160.296C96.7534 164.238 111.693 168.008 129.603 171.606C147.51 175.202 166.219 177.302 185.731 177.907C205.235 178.514 225.575 177.881 246.749 176.01C267.922 174.132 290.054 170.961 313.146 166.494C336.238 162.028 353.46 157.577 364.813 153.142C376.163 148.709 385.38 144.083 392.464 139.263C399.555 134.441 405.093 129.627 409.076 124.821C413.06 120.015 415.792 115.343 417.272 110.804C418.756 106.262 418.825 102.547 417.479 99.6585C416.133 96.7644 413.741 93.6101 410.305 90.1957C406.869 86.7813 402.017 82.9614 395.752 78.7361C389.486 74.5109 382.777 70.7144 375.625 67.3468C368.477 63.9813 360.16 60.3704 350.676 56.514C341.184 52.6588 330.006 48.5746 317.142 44.2614C304.278 39.9482 292.881 36.4535 282.952 33.7773C273.022 31.0955 262.918 28.5582 252.638 26.1653C242.358 23.7668 232.313 21.5894 222.503 19.6331C212.7 17.6699 207.711 16.6608 207.537 16.6058C207.363 16.5509 207.205 16.4817 207.064 16.3982C206.918 16.3069 206.789 16.2041 206.676 16.0898C206.56 15.9734 206.466 15.8488 206.395 15.7161C206.323 15.5777 206.271 15.4347 206.239 15.287C206.213 15.138 206.21 14.9855 206.228 14.8295C206.246 14.679 206.287 14.5278 206.35 14.3758C206.413 14.2295 206.5 14.0881 206.609 13.9515C206.708 13.8195 206.83 13.6953 206.976 13.5787C207.114 13.4634 207.269 13.3626 207.441 13.2763C207.609 13.1878 207.785 13.1167 207.969 13.0631C208.157 13.0117 208.347 12.9772 208.54 12.9597C208.732 12.9365 208.922 12.9354 209.11 12.9563C209.301 12.9738 209.396 12.9825 209.396 12.9825Z" fill="#5EEDCE"/>
</svg>
